<?xml version="1.0" encoding="UTF-8"?>
<svg id="Layer_2" data-name="Layer 2" xmlns="http://www.w3.org/2000/svg" version="1.1" viewBox="0 0 445 268">
  <defs>
    <style>
      .cls-1 {
        stroke: #006ab4;
        stroke-miterlimit: 10;
      }

      .cls-1, .cls-2 {
        fill: #005cb9;
      }

      .cls-2, .cls-3 {
        stroke-width: 0px;
      }

      .cls-3 {
        fill: #1d1d1b;
      }
    </style>
  </defs>
  <g>
    <path class="cls-3" d="M73.15,132.28h-4.04v-2.22h10.9v2.22h-4.04v11.86h-2.82v-11.86Z"/>
    <path class="cls-3" d="M81.56,129.02h2.7v6.15h.04c.69-1.01,1.86-1.65,3.27-1.65,2.46,0,3.53,1.74,3.53,4.08v6.56h-2.7v-5.55c0-1.27-.02-2.99-1.76-2.99-1.96,0-2.38,2.12-2.38,3.45v5.09h-2.7v-15.13Z"/>
    <path class="cls-3" d="M102.23,143.56c-.99.54-2.12.83-3.57.83-3.43,0-5.43-1.98-5.43-5.39,0-3.01,1.59-5.49,4.82-5.49,3.85,0,4.94,2.64,4.94,6.28h-7.18c.12,1.67,1.29,2.62,2.97,2.62,1.31,0,2.44-.48,3.45-1.05v2.2ZM100.41,137.93c-.08-1.31-.69-2.44-2.2-2.44s-2.28,1.05-2.4,2.44h4.6Z"/>
    <path class="cls-3" d="M110.82,130.07h3.47l5.37,10.53h.04v-10.53h2.7v14.08h-3.45l-5.39-10.53h-.04v10.53h-2.7v-14.08Z"/>
    <path class="cls-3" d="M133.63,143.56c-.99.54-2.12.83-3.57.83-3.43,0-5.43-1.98-5.43-5.39,0-3.01,1.59-5.49,4.82-5.49,3.85,0,4.94,2.64,4.94,6.28h-7.18c.12,1.67,1.29,2.62,2.97,2.62,1.31,0,2.44-.48,3.45-1.05v2.2ZM131.81,137.93c-.08-1.31-.69-2.44-2.2-2.44s-2.28,1.05-2.4,2.44h4.6Z"/>
    <path class="cls-3" d="M135.34,133.76h2.87l2.3,7.69h.04l2.1-7.69h3.15l2.26,7.69h.04l2.16-7.69h2.58l-3.19,10.39h-3.19l-2.26-7.93h-.04l-2.22,7.93h-3.09l-3.51-10.39Z"/>
    <path class="cls-3" d="M161.19,136c-.48-.22-1.01-.38-1.84-.38-1.67,0-2.74,1.33-2.74,3.29s.91,3.39,2.8,3.39c.77,0,1.61-.28,2.08-.48l.12,2.24c-.79.24-1.59.34-2.7.34-3.41,0-5.13-2.32-5.13-5.49s1.78-5.39,5.02-5.39c1.09,0,1.88.12,2.62.34l-.24,2.14Z"/>
    <path class="cls-3" d="M163.88,134.3c1.05-.48,2.46-.79,3.61-.79,3.17,0,4.48,1.31,4.48,4.38v1.33c0,1.05.02,1.84.04,2.6.02.79.06,1.51.12,2.32h-2.38c-.1-.54-.1-1.23-.12-1.55h-.04c-.63,1.15-1.98,1.8-3.21,1.8-1.84,0-3.63-1.11-3.63-3.09,0-1.55.75-2.46,1.78-2.97,1.03-.5,2.36-.61,3.49-.61h1.49c0-1.67-.75-2.24-2.34-2.24-1.15,0-2.3.44-3.21,1.13l-.08-2.32ZM167.04,142.41c.83,0,1.47-.36,1.9-.93.44-.58.57-1.33.57-2.14h-1.17c-1.21,0-3.01.2-3.01,1.8,0,.89.75,1.27,1.72,1.27Z"/>
    <path class="cls-3" d="M180.81,135.94c-.83-.28-1.43-.44-2.42-.44-.73,0-1.59.26-1.59,1.15,0,1.65,4.7.61,4.7,4.36,0,2.42-2.16,3.39-4.36,3.39-1.03,0-2.08-.18-3.07-.44l.16-2.22c.85.42,1.74.69,2.66.69.69,0,1.78-.26,1.78-1.27,0-2.04-4.7-.65-4.7-4.4,0-2.24,1.96-3.23,4.08-3.23,1.27,0,2.1.2,2.95.38l-.18,2.04Z"/>
    <path class="cls-3" d="M184.48,135.74h-2v-1.98h2v-2.08l2.7-.87v2.95h2.4v1.98h-2.4v4.84c0,.89.24,1.72,1.27,1.72.48,0,.95-.1,1.23-.28l.08,2.14c-.56.16-1.19.24-2,.24-2.12,0-3.29-1.31-3.29-3.37v-5.29Z"/>
    <path class="cls-3" d="M191.5,129.02h2.7v15.13h-2.7v-15.13Z"/>
    <path class="cls-3" d="M205.39,143.56c-.99.54-2.12.83-3.57.83-3.43,0-5.43-1.98-5.43-5.39,0-3.01,1.59-5.49,4.82-5.49,3.85,0,4.94,2.64,4.94,6.28h-7.18c.12,1.67,1.29,2.62,2.97,2.62,1.31,0,2.44-.48,3.45-1.05v2.2ZM203.57,137.93c-.08-1.31-.69-2.44-2.2-2.44s-2.28,1.05-2.4,2.44h4.6Z"/>
    <path class="cls-3" d="M223.43,144.15h-2.56v-1.41h-.04c-.83,1.01-2,1.65-3.41,1.65-2.46,0-3.53-1.74-3.53-4.08v-6.56h2.7v5.55c0,1.27.02,2.99,1.76,2.99,1.96,0,2.38-2.12,2.38-3.45v-5.09h2.7v10.39Z"/>
    <path class="cls-3" d="M226.21,133.76h2.58v1.47h.04c.61-1.01,1.63-1.72,3.23-1.72,3.19,0,4.36,2.54,4.36,5.41s-1.17,5.47-4.42,5.47c-1.15,0-2.1-.28-3.05-1.43h-.04v5.43h-2.7v-14.63ZM228.94,138.92c0,1.47.59,3.37,2.38,3.37s2.28-1.94,2.28-3.37-.48-3.31-2.24-3.31-2.42,1.86-2.42,3.31Z"/>
    <path class="cls-3" d="M243.3,133.52c3.09,0,5.45,2.08,5.45,5.51,0,2.99-2,5.37-5.45,5.37s-5.43-2.38-5.43-5.37c0-3.43,2.36-5.51,5.43-5.51ZM243.3,142.29c2.08,0,2.62-1.86,2.62-3.59,0-1.59-.85-3.09-2.62-3.09s-2.6,1.53-2.6,3.09c0,1.72.54,3.59,2.6,3.59Z"/>
    <path class="cls-3" d="M250.87,133.76h2.56v1.41h.04c.85-1.19,2-1.65,3.41-1.65,2.46,0,3.53,1.74,3.53,4.08v6.56h-2.7v-5.55c0-1.27-.02-2.99-1.76-2.99-1.96,0-2.38,2.12-2.38,3.45v5.09h-2.7v-10.39Z"/>
    <path class="cls-3" d="M271.61,132.28h-4.04v-2.22h10.9v2.22h-4.04v11.86h-2.82v-11.86Z"/>
    <path class="cls-3" d="M282.11,141.34h.04l2.5-7.59h2.74l-3.89,10.31c-.87,2.3-1.49,4.56-4.32,4.56-.65,0-1.29-.1-1.92-.28l.18-2c.34.12.73.18,1.39.18,1.09,0,1.76-.75,1.76-1.86l-3.98-10.92h2.99l2.5,7.59Z"/>
    <path class="cls-3" d="M289.01,133.76h2.56v1.41h.04c.85-1.19,2-1.65,3.41-1.65,2.46,0,3.53,1.74,3.53,4.08v6.56h-2.7v-5.55c0-1.27-.02-2.99-1.76-2.99-1.96,0-2.38,2.12-2.38,3.45v5.09h-2.7v-10.39Z"/>
    <path class="cls-3" d="M309.68,143.56c-.99.54-2.12.83-3.57.83-3.43,0-5.43-1.98-5.43-5.39,0-3.01,1.59-5.49,4.82-5.49,3.85,0,4.94,2.64,4.94,6.28h-7.18c.12,1.67,1.29,2.62,2.97,2.62,1.31,0,2.44-.48,3.45-1.05v2.2ZM307.86,137.93c-.08-1.31-.69-2.44-2.2-2.44s-2.28,1.05-2.4,2.44h4.6Z"/>
    <path class="cls-3" d="M318.42,130.07h2.82v5.69h5.65v-5.69h2.83v14.08h-2.83v-6.17h-5.65v6.17h-2.82v-14.08Z"/>
    <path class="cls-3" d="M337.5,133.52c3.09,0,5.45,2.08,5.45,5.51,0,2.99-2,5.37-5.45,5.37s-5.43-2.38-5.43-5.37c0-3.43,2.36-5.51,5.43-5.51ZM337.5,142.29c2.08,0,2.62-1.86,2.62-3.59,0-1.59-.85-3.09-2.62-3.09s-2.6,1.53-2.6,3.09c0,1.72.54,3.59,2.6,3.59Z"/>
    <path class="cls-3" d="M351.25,135.94c-.83-.28-1.43-.44-2.42-.44-.73,0-1.59.26-1.59,1.15,0,1.65,4.7.61,4.7,4.36,0,2.42-2.16,3.39-4.36,3.39-1.03,0-2.08-.18-3.07-.44l.16-2.22c.85.42,1.74.69,2.66.69.69,0,1.78-.26,1.78-1.27,0-2.04-4.7-.65-4.7-4.4,0-2.24,1.96-3.23,4.08-3.23,1.27,0,2.1.2,2.95.38l-.18,2.04Z"/>
    <path class="cls-3" d="M354.03,133.76h2.58v1.47h.04c.61-1.01,1.63-1.72,3.23-1.72,3.19,0,4.36,2.54,4.36,5.41s-1.17,5.47-4.42,5.47c-1.15,0-2.1-.28-3.05-1.43h-.04v5.43h-2.7v-14.63ZM356.76,138.92c0,1.47.59,3.37,2.38,3.37s2.28-1.94,2.28-3.37-.48-3.31-2.24-3.31-2.42,1.86-2.42,3.31Z"/>
    <path class="cls-3" d="M366.42,129.28h2.7v2.58h-2.7v-2.58ZM366.42,133.76h2.7v10.39h-2.7v-10.39Z"/>
    <path class="cls-3" d="M372.86,135.74h-2v-1.98h2v-2.08l2.7-.87v2.95h2.4v1.98h-2.4v4.84c0,.89.24,1.72,1.27,1.72.48,0,.95-.1,1.23-.28l.08,2.14c-.56.16-1.19.24-2,.24-2.12,0-3.29-1.31-3.29-3.37v-5.29Z"/>
    <path class="cls-3" d="M380.29,134.3c1.05-.48,2.46-.79,3.61-.79,3.17,0,4.48,1.31,4.48,4.38v1.33c0,1.05.02,1.84.04,2.6.02.79.06,1.51.12,2.32h-2.38c-.1-.54-.1-1.23-.12-1.55h-.04c-.63,1.15-1.98,1.8-3.21,1.8-1.84,0-3.63-1.11-3.63-3.09,0-1.55.75-2.46,1.78-2.97,1.03-.5,2.36-.61,3.49-.61h1.49c0-1.67-.75-2.24-2.34-2.24-1.15,0-2.3.44-3.21,1.13l-.08-2.32ZM383.45,142.41c.83,0,1.47-.36,1.9-.93.44-.58.57-1.33.57-2.14h-1.17c-1.21,0-3.01.2-3.01,1.8,0,.89.75,1.27,1.72,1.27Z"/>
    <path class="cls-3" d="M391.1,129.02h2.7v15.13h-2.7v-15.13Z"/>
    <path class="cls-3" d="M402.83,135.94c-.83-.28-1.43-.44-2.42-.44-.73,0-1.59.26-1.59,1.15,0,1.65,4.7.61,4.7,4.36,0,2.42-2.16,3.39-4.36,3.39-1.03,0-2.08-.18-3.07-.44l.16-2.22c.85.42,1.74.69,2.66.69.69,0,1.78-.26,1.78-1.27,0-2.04-4.7-.65-4.7-4.4,0-2.24,1.96-3.23,4.08-3.23,1.27,0,2.1.2,2.95.38l-.18,2.04Z"/>
    <path class="cls-2" d="M267.42,151.58h2.31l3.58,7.02h.03v-7.02h1.8v9.39h-2.3l-3.59-7.02h-.03v7.02h-1.8v-9.39Z"/>
    <path class="cls-2" d="M277.23,151.58h1.88v3.79h3.77v-3.79h1.88v9.39h-1.88v-4.12h-3.77v4.12h-1.88v-9.39Z"/>
    <path class="cls-2" d="M291.99,153.3c-.59-.26-1.25-.4-1.91-.4s-1.48.28-1.48,1.3c0,1.63,4.12.94,4.12,4.09,0,2.06-1.63,2.84-3.52,2.84-1.02,0-1.48-.13-2.41-.36l.17-1.69c.65.35,1.39.58,2.13.58s1.67-.36,1.67-1.21c0-1.79-4.12-1.05-4.12-4.16,0-2.1,1.63-2.87,3.28-2.87.81,0,1.56.11,2.25.34l-.17,1.55Z"/>
    <path class="cls-2" d="M298.16,151.58h5.22v1.48h-3.34v2.31h3.17v1.48h-3.17v4.12h-1.88v-9.39Z"/>
    <path class="cls-2" d="M307.9,153.88c2.06,0,3.63,1.39,3.63,3.67,0,1.99-1.33,3.58-3.63,3.58s-3.62-1.59-3.62-3.58c0-2.29,1.57-3.67,3.62-3.67ZM307.9,159.73c1.39,0,1.75-1.24,1.75-2.39,0-1.06-.56-2.06-1.75-2.06s-1.74,1.02-1.74,2.06c0,1.14.36,2.39,1.74,2.39Z"/>
    <path class="cls-2" d="M319.31,160.97h-1.71v-.94h-.03c-.55.67-1.33,1.1-2.27,1.1-1.64,0-2.35-1.16-2.35-2.72v-4.37h1.8v3.7c0,.85.01,1.99,1.17,1.99,1.3,0,1.59-1.41,1.59-2.3v-3.39h1.8v6.93Z"/>
    <path class="cls-2" d="M321.17,154.04h1.71v.94h.03c.56-.79,1.33-1.1,2.27-1.1,1.64,0,2.35,1.16,2.35,2.72v4.37h-1.8v-3.7c0-.85-.01-1.99-1.17-1.99-1.3,0-1.59,1.41-1.59,2.3v3.39h-1.8v-6.93Z"/>
    <path class="cls-2" d="M334,160.19h-.03c-.54.67-1.28.94-2.13.94-2.13,0-2.91-1.75-2.91-3.65s.78-3.6,2.91-3.6c.9,0,1.53.31,2.07.97h.03v-3.97h1.8v10.09h-1.75v-.78ZM332.35,159.73c1.2,0,1.59-1.26,1.59-2.25s-.46-2.21-1.61-2.21-1.49,1.28-1.49,2.21.34,2.25,1.52,2.25Z"/>
    <path class="cls-2" d="M337.92,154.4c.7-.32,1.64-.52,2.41-.52,2.11,0,2.99.87,2.99,2.92v.89c0,.7.01,1.22.03,1.74.01.52.04,1.01.08,1.55h-1.59c-.07-.36-.07-.82-.08-1.04h-.03c-.42.77-1.32,1.2-2.14,1.2-1.22,0-2.42-.74-2.42-2.06,0-1.04.5-1.64,1.18-1.98.69-.34,1.57-.4,2.33-.4h1c0-1.12-.5-1.49-1.56-1.49-.77,0-1.53.3-2.14.75l-.05-1.55ZM340.03,159.81c.55,0,.98-.24,1.26-.62.3-.39.38-.89.38-1.43h-.78c-.81,0-2,.13-2,1.2,0,.59.5.85,1.14.85Z"/>
    <path class="cls-2" d="M345.68,155.36h-1.33v-1.32h1.33v-1.39l1.8-.58v1.96h1.6v1.32h-1.6v3.23c0,.59.16,1.14.85,1.14.32,0,.63-.07.82-.19l.05,1.43c-.38.11-.79.16-1.33.16-1.41,0-2.19-.87-2.19-2.25v-3.52Z"/>
    <path class="cls-2" d="M350.36,151.05h1.8v1.72h-1.8v-1.72ZM350.36,154.04h1.8v6.93h-1.8v-6.93Z"/>
    <path class="cls-2" d="M357.24,153.88c2.06,0,3.63,1.39,3.63,3.67,0,1.99-1.33,3.58-3.63,3.58s-3.62-1.59-3.62-3.58c0-2.29,1.57-3.67,3.62-3.67ZM357.24,159.73c1.39,0,1.75-1.24,1.75-2.39,0-1.06-.56-2.06-1.75-2.06s-1.74,1.02-1.74,2.06c0,1.14.36,2.39,1.74,2.39Z"/>
    <path class="cls-2" d="M362.28,154.04h1.71v.94h.03c.56-.79,1.33-1.1,2.27-1.1,1.64,0,2.35,1.16,2.35,2.72v4.37h-1.8v-3.7c0-.85-.01-1.99-1.17-1.99-1.3,0-1.59,1.41-1.59,2.3v3.39h-1.8v-6.93Z"/>
    <path class="cls-2" d="M376.11,153.06h-2.69v-1.48h7.26v1.48h-2.69v7.91h-1.88v-7.91Z"/>
    <path class="cls-2" d="M380.53,154.04h1.6v1.57h.03c.08-.65.82-1.74,1.9-1.74.17,0,.36,0,.55.05v1.82c-.16-.09-.48-.15-.81-.15-1.47,0-1.47,1.83-1.47,2.82v2.54h-1.8v-6.93Z"/>
    <path class="cls-2" d="M392.08,160.97h-1.71v-.94h-.03c-.55.67-1.33,1.1-2.27,1.1-1.64,0-2.35-1.16-2.35-2.72v-4.37h1.8v3.7c0,.85.01,1.99,1.17,1.99,1.3,0,1.59-1.41,1.59-2.3v-3.39h1.8v6.93Z"/>
    <path class="cls-2" d="M398.06,155.49c-.55-.19-.96-.3-1.61-.3-.48,0-1.06.18-1.06.77,0,1.1,3.13.4,3.13,2.91,0,1.61-1.44,2.26-2.91,2.26-.69,0-1.39-.12-2.04-.3l.11-1.48c.56.28,1.16.46,1.78.46.46,0,1.18-.17,1.18-.85,0-1.36-3.13-.43-3.13-2.93,0-1.49,1.3-2.15,2.72-2.15.85,0,1.4.13,1.96.26l-.12,1.36Z"/>
    <path class="cls-2" d="M400.51,155.36h-1.33v-1.32h1.33v-1.39l1.8-.58v1.96h1.6v1.32h-1.6v3.23c0,.59.16,1.14.85,1.14.32,0,.63-.07.82-.19l.05,1.43c-.38.11-.79.16-1.33.16-1.41,0-2.19-.87-2.19-2.25v-3.52Z"/>
  </g>
  <path class="cls-1" d="M332.93,92.73v28.6h71.03v-28.6h-71.03ZM348.89,118.51l-4.84-15.93h-.07l-3.22,15.93h-5.83l4.94-23.02h7.72l4.74,15.96h.07l3.25-15.96h5.83l-4.91,23.02h-7.69ZM372.49,118.51l2.06-9.86h-7.33l-2.06,9.86h-6.2l4.81-23.02h6.2l-1.82,8.81h7.33l1.82-8.81h6.2l-4.81,23.02h-6.2ZM399.81,100.7c-1.19-.56-2.82-1.06-5.11-1.06-2.45,0-4.44.36-4.44,2.21,0,3.27,8.98,2.05,8.98,9.04,0,6.37-5.93,8.02-11.31,8.02-2.39,0-5.14-.56-7.16-1.19l1.46-4.68c1.23.79,3.68,1.32,5.7,1.32s4.94-.36,4.94-2.74c0-3.69-8.98-2.31-8.98-8.81,0-5.94,5.24-7.72,10.31-7.72,2.85,0,5.54.3,7.09,1.02l-1.49,4.58Z"/>
</svg>